<svg
   viewBox="0 0 24 24"
   width="48px"
   height="48px"
   version="1.1"
   id="svg1"
  <path
     fill="#e0def4"
     d="m 13.203362,15.937607 c 0.113012,-0.297701 0.178935,-0.637258 0.178935,-1.000883 0,-1.113893 -0.595926,-2.019552 -1.328405,-2.019552 -0.738759,0 -1.334161,0.905659 -1.334161,2.019552 0,0.357346 0.05964,0.696904 0.172656,0.988849 -2.4365432,0.256368 -4.1521165,1.275039 -4.8490192,1.733362 1.173538,-1.692029 2.4009656,-3.675481 3.5739804,-5.957157 0.2919459,-0.566103 0.5661018,-1.125926 0.8219478,-1.673717 0.100977,0.0654 0.202478,0.137078 0.31549,0.208756 0.524246,0.327524 1.012915,0.506458 1.37026,0.601681 -0.262123,-0.196724 -0.54779,-0.434779 -0.839735,-0.726725 C 11.065043,9.8915053 10.86832,9.6707151 10.701419,9.4562033 11.195843,8.372132 11.624867,7.3293945 12.000001,6.340546 c 0.625225,1.6559286 1.40584,3.4609687 2.382654,5.361232 0.631503,1.221149 1.275039,2.359109 1.918052,3.407603 -0.184689,-0.100979 -0.387168,-0.196724 -0.60168,-0.279913 -0.36938,-0.142834 -0.714691,-0.2323 -1.012916,-0.285667 0.404958,0.202478 0.875838,0.47088 1.370262,0.828226 0.321768,0.238579 0.607435,0.476636 0.85177,0.708936 0.0057,0.0057 0.0057,0.0057 0.01203,0.01203 0.339556,0.554069 0.691147,1.066282 1.036459,1.566461 -0.684869,-0.453091 -2.37062,-1.453973 -4.753274,-1.721851 z"
     id="path1"
     style="stroke-width:0.5232" />
</svg>
